<svg aria-hidden="true" style="width:0;height:0;position:absolute;overflow:hidden" xmlns="http://www.w3.org/2000/svg"><defs><symbol id="icon-magnify" viewBox="0 0 32 32"><path d="M12.668 4a8.665 8.665 0 0 1 8.664 8.665v.003a8.668 8.668 0 0 1-2.088 5.652l.01-.012.36.36h1.054l6.664 6.664-2 2-6.664-6.664v-1.055l-.36-.36a8.652 8.652 0 0 1-5.64 2.079h-.003A8.665 8.665 0 0 1 4 12.668v-.002A8.666 8.666 0 0 1 12.666 4h.002zm0 2.668c-3.336 0-6 2.664-6 6 0 3.332 2.664 6 6 6 3.332 0 6-2.668 6-6 0-3.336-2.668-6-6-6z"/></symbol></defs></svg>