 <svg aria-hidden="true" style="position:absolute;width:0;height:0;overflow:hidden" xmlns="http://www.w3.org/2000/svg">
 <defs>
<symbol id="icon-magnify" viewBox="0 0 32 32">
<path d="M12.668 4c4.785 0.001 8.664 3.88 8.664 8.665 0 0.001 0 0.002 0 0.003v-0c-0.001 2.158-0.787 4.132-2.088 5.652l0.010-0.012 0.36 0.36h1.054l6.664 6.664-2 2-6.664-6.664v-1.055l-0.36-0.36c-1.508 1.292-3.482 2.078-5.64 2.079h-0c-0.001 0-0.002 0-0.003 0-4.785 0-8.664-3.879-8.665-8.664v-0c0-0.001 0-0.001 0-0.002 0-4.786 3.88-8.666 8.666-8.666 0.001 0 0.001 0 0.002 0h-0zM12.668 6.668c-3.336 0-6 2.664-6 6 0 3.332 2.664 6 6 6 3.332 0 6-2.668 6-6 0-3.336-2.668-6-6-6z"></path>
</symbol>
</defs>
</svg>